<svg width="32" height="32" viewBox="0 0 32 32" fill="none" xmlns="http://www.w3.org/2000/svg">
<path d="M6.45078 16.0002C6.45078 20.3884 5.64196 24.6052 4.12265 28.4544C4.04917 28.6506 4 28.8711 4 29.0917C4 29.9993 4.71104 30.8571 5.71544 30.8571C6.353 30.8571 6.96513 30.4647 7.21044 29.8517C8.8767 25.5614 9.80818 20.903 9.80818 15.9997C9.80818 11.0964 8.8767 6.43798 7.21044 2.14768C6.96513 1.53527 6.35244 1.14282 5.71544 1.14282C4.71048 1.14282 4 2.00066 4 2.90825C4 3.12879 4.04917 3.34933 4.12265 3.54555C5.64196 7.39421 6.45078 11.6121 6.45078 16.0002Z" fill="#5B53FF"/>
<path d="M13.165 15.9997C13.165 19.211 12.7976 22.3495 12.1114 25.3403V25.3397C12.0866 25.4624 12.0623 25.6095 12.0623 25.7322C12.0623 26.6641 12.7976 27.4976 13.7777 27.4976C14.513 27.4976 15.1749 26.983 15.3462 26.2473C16.1301 22.9619 16.5467 19.5294 16.5467 15.9991C16.5467 12.4688 16.1301 9.03636 15.3462 5.75149C15.1744 5.0158 14.513 4.50121 13.7777 4.50121C12.7976 4.50121 12.0623 5.30985 12.0623 6.24176C12.0623 6.36447 12.0866 6.51149 12.1114 6.6342C12.797 9.64991 13.165 12.7883 13.165 15.9997Z" fill="#5B53FF"/>
<path fill-rule="evenodd" clip-rule="evenodd" d="M19.9041 15.9991C19.9041 14.455 19.8306 12.9595 19.6837 11.464C19.5859 10.4342 20.3698 9.55151 21.3748 9.55151C22.2322 9.55151 22.9433 10.1888 23.0167 11.0223C23.188 12.665 23.2621 14.3078 23.2621 15.9991C23.2621 17.6905 23.1886 19.3332 23.0167 20.9759C22.9433 21.8094 22.2328 22.4467 21.3748 22.4467C20.3698 22.4467 19.5859 21.5397 19.6837 20.5343C19.8306 19.0388 19.9041 17.5189 19.9041 15.9991ZM19.9041 15.9991C19.9041 15.9993 19.9041 15.9995 19.9041 15.9997V15.9986C19.9041 15.9987 19.9041 15.9989 19.9041 15.9991Z" fill="#5B53FF"/>
<path d="M29.51 17.1765C29.8287 16.8575 30 16.4164 30 15.9997C30 15.5586 29.8287 15.1175 29.51 14.7986L28.5299 13.8424C28.3094 13.6218 28.0155 13.524 27.7459 13.524C27.1824 13.524 26.6189 13.9651 26.6189 14.6516V17.3484C26.6189 18.0343 27.1824 18.4759 27.7459 18.4759C28.0155 18.4759 28.3094 18.3775 28.5299 18.157L29.51 17.1765Z" fill="#5B53FF"/>
</svg>
